<svg class="border shadow-md" viewBox="0 0 1142.24 642.51" style="width: 1142.24px; height: 642.51px;" xmlns="http://www.w3.org/2000/svg" preserveAspectRatio="none"><rect class="bg" id="bg" x="0" y="0" width="1142.24" height="642.51" fill="#ffffff"/><g transform="rotate(0 571.12 321.255)"><path id="-1" d="M -447.41 -28.41 S -233.71 -67.41&#10;            0.00 -28.41 213.71 -57.61&#10;            447.41 -28.41 661.12 -57.61&#10;            894.83 -28.41 999.24 -75.41&#10;            1342.24 -28.41 1463.65 -69.41&#10;            1789.65 -28.41 h 110 V 842.51 H -447.41 Z" fill="#1C8FFF"/><path id="0" d="M -447.41 30.00 S -429.00 -6.00&#10;            0.00 30.00 208.41 0.80&#10;            447.41 30.00 661.12 -2.00&#10;            894.83 30.00 1072.24 -24.00&#10;            1342.24 30.00 1555.95 -28.00&#10;            1789.65 30.00 h 110 V 842.51 H -447.41 Z" fill="#1b85f3"/><path id="1" d="M -447.41 88.41 S -233.71 59.20&#10;            0.00 88.41 64.41 59.20&#10;            447.41 88.41 661.12 59.20&#10;            894.83 88.41 1077.24 40.41&#10;            1342.24 88.41 1493.65 32.41&#10;            1789.65 88.41 h 110 V 842.51 H -447.41 Z" fill="#1a7be7"/><path id="2" d="M -447.41 146.82 S -387.00 117.61&#10;            0.00 146.82 213.71 92.82&#10;            447.41 146.82 661.12 117.61&#10;            894.83 146.82 1108.53 117.61&#10;            1342.24 146.82 1382.65 117.61&#10;            1789.65 146.82 h 110 V 842.51 H -447.41 Z" fill="#1971db"/><path id="3" d="M -447.41 205.23 S -414.00 176.02&#10;            0.00 205.23 213.71 176.02&#10;            447.41 205.23 661.12 176.02&#10;            894.83 205.23 1108.53 154.23&#10;            1342.24 205.23 1555.95 171.23&#10;            1789.65 205.23 h 110 V 842.51 H -447.41 Z" fill="#1867cf"/><path id="4" d="M -447.41 263.64 S -233.71 234.44&#10;            0.00 263.64 213.71 234.44&#10;            447.41 263.64 661.12 216.64&#10;            894.83 263.64 1108.53 231.64&#10;            1342.24 263.64 1555.95 234.44&#10;            1789.65 263.64 h 110 V 842.51 H -447.41 Z" fill="#175dc3"/><path id="5" d="M -447.41 322.05 S -233.71 288.05&#10;            0.00 322.05 213.71 292.84&#10;            447.41 322.05 571.83 283.05&#10;            894.83 322.05 1108.53 281.05&#10;            1342.24 322.05 1344.65 292.84&#10;            1789.65 322.05 h 110 V 842.51 H -447.41 Z" fill="#1653b7"/><path id="6" d="M -447.41 380.46 S -324.00 351.25&#10;            0.00 380.46 132.41 351.25&#10;            447.41 380.46 661.12 351.25&#10;            894.83 380.46 1075.24 331.46&#10;            1342.24 380.46 1555.95 351.25&#10;            1789.65 380.46 h 110 V 842.51 H -447.41 Z" fill="#1549ab"/><path id="7" d="M -447.41 438.87 S -233.71 409.67&#10;            0.00 438.87 213.71 409.67&#10;            447.41 438.87 661.12 392.87&#10;            894.83 438.87 1006.24 390.87&#10;            1342.24 438.87 1555.95 409.67&#10;            1789.65 438.87 h 110 V 842.51 H -447.41 Z" fill="#143f9f"/><path id="8" d="M -447.41 497.28 S -401.00 468.07&#10;            0.00 497.28 167.41 468.07&#10;            447.41 497.28 661.12 468.07&#10;            894.83 497.28 1108.53 468.07&#10;            1342.24 497.28 1555.95 468.07&#10;            1789.65 497.28 h 110 V 842.51 H -447.41 Z" fill="#133593"/><path id="9" d="M -447.41 555.69 S -233.71 523.69&#10;            0.00 555.69 203.41 520.69&#10;            447.41 555.69 661.12 519.69&#10;            894.83 555.69 953.24 509.69&#10;            1342.24 555.69 1555.95 526.48&#10;            1789.65 555.69 h 110 V 842.51 H -447.41 Z" fill="#122b87"/><path id="10" d="M -447.41 614.10 S -233.71 557.10&#10;            0.00 614.10 213.71 567.10&#10;            447.41 614.10 659.83 584.89&#10;            894.83 614.10 897.24 564.10&#10;            1342.24 614.10 1550.65 584.89&#10;            1789.65 614.10 h 110 V 842.51 H -447.41 Z" fill="#11217b"/></g></svg>